<svg enable-background="new 0 0 220 40" viewBox="0 0 220 40" xmlns="http://www.w3.org/2000/svg">
  <style type="text/css">
    .logo-text-color{fill:#000000;}
    .st1{fill:#C82027;}
  </style>
  <path class="logo-text-color" d="m148.95 12.45h-4.6v15.11h4.6zm16.73 5.84-3.22 6.03-3.26-6.03zm8.31-5.84h-5.21l-1.45 2.7h-9.74l-1.5-2.7h-5.03l8.27 15.11h6.16zm22.3 0h-4.6v5.78h-10.47v-5.78h-4.6v15.11h4.6v-5.59h10.47v5.59h4.6zm7.94 5.68c0-1.09.25-1.56.91-1.84.63-.27 1.13-.29 4.55-.29 4.42 0 4.76.27 4.76 3.9 0 2.45-.11 3.06-.66 3.56-.57.5-1.25.59-5.01.59-3.99 0-4.33-.14-4.42-1.79h-4.39v.5c0 2.22.57 3.56 1.79 4.17 1.29.63 2.51.75 8.16.75 4.24 0 5.69-.2 7.04-1 1.59-.91 2.04-2.33 2.04-6.32 0-4.49-.43-6.07-1.93-7.02-1.22-.79-2.63-1-6.98-1-3.01 0-4.83.02-5.75.11-2.36.16-3.58.77-4.17 2.06-.32.68-.39 1.43-.41 3.63h4.47zm-99.85-2.15c5.66 0 5.73.05 5.73 3.85 0 2.02-.11 2.79-.54 3.33-.52.73-1.34.86-5.3.86-3.47 0-4.21-.09-4.83-.59-.57-.48-.75-1.29-.75-3.51 0-2.17.18-2.92.79-3.4.6-.43 1.52-.54 4.9-.54zm-.36-3.69c-3.99 0-5.37.09-6.64.45-1.7.5-2.58 1.36-3.01 2.97-.27 1.02-.32 1.65-.32 4.19 0 3.31.14 4.42.72 5.53.57 1.11 1.54 1.74 3.22 2.04.91.18 2.74.25 6.34.25 1.47 0 3.49-.02 4.3-.07 2.2-.09 3.47-.45 4.37-1.22 1.29-1.06 1.68-2.54 1.68-6.18 0-1.84-.05-3.06-.14-3.67-.32-2.42-1.45-3.62-3.78-4.05-1.06-.2-2.39-.24-6.74-.24zm-13.32 5.27c.02-3.17-.72-4.35-3.06-4.94-.95-.23-2.26-.29-6.39-.29-2.88 0-4.71.07-5.75.2-1.95.27-3.01.88-3.69 2.06-.59 1.07-.77 2.36-.77 5.6 0 2.81.11 3.87.57 4.89.52 1.25 1.5 1.95 3.15 2.31.95.2 2.29.27 5.76.27 4.46 0 5.84-.02 6.32-.07 1.9-.2 2.97-.88 3.49-2.29.29-.82.38-1.7.38-4.19v-2.08h-10.31v2.81h5.82v.25c0 .41 0 .48-.02.66-.07.75-.52 1.18-1.43 1.34-.54.09-.54.09-2.95.09-3.94 0-4.03-.02-4.67-.2-1.18-.36-1.5-1.11-1.5-3.6 0-.97.05-2.36.11-2.76.11-1.04.57-1.5 1.61-1.65.34-.05 2.22-.09 4.12-.09l1.63.02h1.16c1.34 0 1.86.45 1.9 1.68h4.52zm-35.98 4.15 3.22-6.03 3.26 6.03zm-8.32 5.85h5.21l1.45-2.69h9.74l1.5 2.69h5.03l-8.27-15.11h-6.16zm-16.97-7.5v-3.9h7.34c1.38 0 1.77.07 2.11.43.29.32.39.72.39 1.7 0 1.5-.43 1.77-2.65 1.77zm-4.58 7.5h4.58v-3.8h7.05c1.25 0 1.61.04 1.97.29.41.3.57.77.57 1.63v1.88h4.67v-2.38c0-1.29-.18-1.97-.63-2.49-.45-.54-1.04-.72-2.63-.82-.11 0-.41-.02-.75-.05 2.04-.29 2.74-.52 3.26-1.06.66-.7.95-1.79.95-3.42 0-2.36-.61-3.74-1.93-4.35-.88-.41-1.9-.54-4.08-.54h-13.03zm-19.25-3.61v-7.75h7.79c2.65 0 3.2.66 3.2 3.83 0 2.6-.29 3.4-1.4 3.74-.54.18-.63.18-1.88.18zm-4.6 3.61h13.66c1.61 0 2.29-.05 3.15-.23 1.65-.32 2.92-1.72 3.17-3.54.14-.86.23-2.42.23-3.78 0-.73-.05-1.77-.09-2.47-.16-1.93-.5-2.88-1.34-3.69-1.04-1.04-2.54-1.4-5.73-1.4h-13.05zm116.8-.05h4.42l-.11-11.37 16.45 20.68-.05-24.42h-4.35l.11 11.49-16.46-20.74z"></path>
  <path fill="#c82027" d="m117.8 10.71.03-7.53 20.67 26 .08 7.67z"></path>
</svg>